<svg width="165" height="34" viewBox="0 0 165 34" fill="none" xmlns="http://www.w3.org/2000/svg">
<path d="M35.0222 4.6953C36.7865 4.80017 37.7798 6.75915 36.8101 8.22146L22.0565 30.4704L33.8176 9.6236C34.6093 8.22029 33.7197 6.46404 32.1097 6.25198L8.17807 3.09968L35.0222 4.6953Z" fill="url(#paint0_linear_8_168)"/>
<path d="M25.1459 8.17822C27.3839 8.31124 28.5028 8.37776 29.0143 9.01164C29.1753 9.21116 29.2923 9.4419 29.3577 9.68888C29.5655 10.4736 28.9505 11.401 27.7205 13.2559L21.844 22.1179C21.8317 22.1708 21.8094 22.2227 21.7763 22.2711L20.6918 23.8547C20.1757 24.6308 19.73 25.2918 19.334 25.8376L15.8357 30.9465C15.5794 31.3207 14.9883 31.1334 14.9965 30.6807L15.1355 23.0313C15.1118 22.5686 15.089 22.0676 15.0644 21.5267L14.8824 17.5191C14.8523 16.858 14.8373 16.5275 14.7146 16.2326C14.6741 16.1352 14.6252 16.0414 14.5684 15.9524C14.3963 15.6827 14.1326 15.4794 13.6052 15.0726L11.3675 13.3469C11.1993 13.2172 11.0357 13.0911 10.8768 12.9683L3.45322 7.94441C3.07187 7.68633 3.26795 7.09522 3.72876 7.11376L9.25425 7.33608C10.2811 7.29465 11.7008 7.37904 13.5832 7.49093L25.1459 8.17822Z" fill="url(#paint1_linear_8_168)"/>
<path d="M156.439 11.6838L157.312 20.2453L161.913 11.6838H165L157.982 24.2058C157.283 25.4289 156.574 26.3704 155.856 27.0305C155.138 27.6906 154.352 28.1759 153.497 28.4866C152.663 28.7972 151.731 28.9719 150.702 29.0107C149.692 29.069 148.537 29.0981 147.236 29.0981L147.673 27.0888C148.314 27.0888 148.906 27.079 149.45 27.0596C150.013 27.0402 150.459 26.982 150.789 26.8849C151.236 26.7684 151.556 26.5549 151.75 26.2442C151.944 25.953 152.041 25.5162 152.041 24.9338C152.041 24.5455 152.002 24.099 151.925 23.5942C151.867 23.0895 151.799 22.5556 151.721 21.9926L150.294 11.6838H156.439Z" fill="white"/>
<path d="M138.889 16.9838L145.675 11.6838H149.519L143.723 16.4305L148.062 24.2058H141.539L138.569 18.3525L137.346 24.2058H131.405L135.54 4.63654H141.51L138.889 16.9838Z" fill="white"/>
<path d="M119.978 11.6838H124.725L125.162 13.8679H125.366C125.812 13.169 126.385 12.5769 127.084 12.0915C127.783 11.6062 128.705 11.3635 129.85 11.3635C129.928 11.3635 130.045 11.3732 130.2 11.3926C130.375 11.3926 130.559 11.4217 130.753 11.48C130.967 11.5188 131.18 11.5867 131.394 11.6838C131.627 11.7615 131.85 11.8779 132.064 12.0333L130.782 18.0322H127.608C127.569 16.8285 127.462 15.9937 127.288 15.5278C127.113 15.0424 126.832 14.7998 126.443 14.7998C126.249 14.7998 126.036 14.8483 125.803 14.9454C125.589 15.023 125.366 15.2074 125.133 15.4987L123.269 24.2058H117.328L119.978 11.6838Z" fill="white"/>
<path d="M103.648 12.7613C104.638 12.2759 105.648 11.9265 106.677 11.7129C107.725 11.48 108.89 11.3635 110.171 11.3635C111.414 11.3635 112.443 11.4605 113.258 11.6547C114.074 11.8488 114.724 12.1303 115.209 12.4992C115.695 12.8681 116.034 13.3049 116.229 13.8096C116.423 14.3144 116.52 14.8871 116.52 15.5278C116.52 15.8966 116.491 16.2946 116.432 16.7217C116.394 17.1488 116.345 17.508 116.287 17.7992L114.918 24.2058H110.23L109.706 22.3421H109.531C108.91 23.0216 108.182 23.5457 107.347 23.9146C106.531 24.2641 105.716 24.4388 104.901 24.4388C104.435 24.4388 103.978 24.3708 103.532 24.2349C103.085 24.099 102.687 23.8952 102.338 23.6234C101.988 23.3322 101.707 22.973 101.493 22.5459C101.28 22.0994 101.173 21.5655 101.173 20.9443C101.173 19.9348 101.445 19.1388 101.988 18.5564C102.551 17.9545 103.28 17.508 104.173 17.2168C105.085 16.9062 106.104 16.712 107.23 16.6344C108.376 16.5567 109.521 16.5179 110.667 16.5179C110.705 16.3238 110.754 16.052 110.812 15.7025C110.87 15.3336 110.899 15.0133 110.899 14.7415C110.899 14.3921 110.802 14.0717 110.608 13.7805C110.434 13.4699 110.055 13.3146 109.473 13.3146C108.793 13.3146 108.288 13.5184 107.958 13.9261C107.648 14.3144 107.444 14.79 107.347 15.3531H103.095L103.648 12.7613ZM110.346 17.8866H109.822C109.259 17.8866 108.774 17.9642 108.366 18.1195C107.978 18.2554 107.657 18.4399 107.405 18.6728C107.172 18.9058 106.997 19.1679 106.881 19.4591C106.764 19.7503 106.706 20.0415 106.706 20.3327C106.706 20.7987 106.823 21.1481 107.056 21.3811C107.308 21.6141 107.599 21.7305 107.929 21.7305C108.337 21.7305 108.735 21.5849 109.123 21.2937C109.531 21.0025 109.783 20.6142 109.88 20.1289L110.346 17.8866Z" fill="white"/>
<path d="M88.9434 24.2058H84.2258L88.361 4.63654H94.3308L92.4379 13.5476H92.6418C93.2825 12.8098 94.0008 12.2856 94.7967 11.975C95.6121 11.645 96.4178 11.48 97.2138 11.48C97.8933 11.48 98.4563 11.5867 98.9028 11.8003C99.3687 11.9944 99.7376 12.2662 100.009 12.6157C100.281 12.9651 100.475 13.3825 100.592 13.8679C100.708 14.3532 100.767 14.8677 100.767 15.4113C100.767 15.6831 100.747 16.0908 100.708 16.6344C100.669 17.178 100.582 17.7895 100.446 18.469C100.31 19.1291 100.116 19.8183 99.8638 20.5366C99.6114 21.2355 99.2717 21.8761 98.8446 22.4586C98.4369 23.041 97.9127 23.5166 97.272 23.8855C96.6508 24.2544 95.9033 24.4388 95.0297 24.4388C94.5055 24.4388 93.9911 24.3805 93.4863 24.2641C93.0009 24.1476 92.5544 23.9923 92.1467 23.7981C91.7585 23.604 91.409 23.3807 91.0984 23.1283C90.8072 22.8566 90.5936 22.5848 90.4577 22.313H90.2539L88.9434 24.2058ZM92.2341 21.6141C92.7 21.6141 93.0883 21.3714 93.3989 20.886C93.7096 20.3813 93.9619 19.7989 94.1561 19.1388C94.3502 18.4593 94.4861 17.7895 94.5638 17.1294C94.6608 16.4499 94.7094 15.9452 94.7094 15.6151C94.7094 15.2269 94.6414 14.9065 94.5055 14.6541C94.389 14.4018 94.1658 14.2756 93.8358 14.2756C93.4475 14.2756 93.0883 14.4212 92.7583 14.7124C92.4282 14.9842 92.1856 15.2172 92.0302 15.4113L90.8945 20.6239C91.0304 20.8569 91.2052 21.0802 91.4187 21.2937C91.6517 21.5073 91.9235 21.6141 92.2341 21.6141Z" fill="white"/>
<path d="M67.2389 13.5476C67.6466 13.1593 68.1029 12.8001 68.6076 12.4701C69.0541 12.1983 69.588 11.9459 70.2093 11.7129C70.8305 11.48 71.5294 11.3635 72.306 11.3635C73.2379 11.3635 73.9271 11.577 74.3736 12.0041C74.8395 12.4312 75.1016 12.9554 75.1598 13.5767H75.3346C75.7811 13.169 76.2664 12.8001 76.7906 12.4701C77.2371 12.1983 77.7613 11.9459 78.3631 11.7129C78.965 11.48 79.6056 11.3635 80.2851 11.3635C81.2947 11.3635 82.11 11.645 82.7313 12.208C83.372 12.7516 83.6923 13.4602 83.6923 14.3338C83.6923 14.7803 83.6146 15.3725 83.4593 16.1102C83.304 16.8479 83.1293 17.6536 82.9351 18.5272L81.7121 24.2058H75.9752L77.5478 16.6053C77.606 16.314 77.6642 16.0325 77.7225 15.7607C77.7807 15.4889 77.8098 15.2657 77.8098 15.091C77.8098 14.8192 77.7322 14.5959 77.5769 14.4212C77.4216 14.227 77.1983 14.13 76.9071 14.13C76.5382 14.13 76.1888 14.2659 75.8587 14.5377C75.5481 14.79 75.3054 15.0036 75.1307 15.1783L73.2379 24.2058H67.7922L69.3939 16.6053C69.4327 16.3529 69.4813 16.1005 69.5395 15.8481C69.5977 15.5763 69.6269 15.3336 69.6269 15.1201C69.6269 14.8289 69.5492 14.5959 69.3939 14.4212C69.258 14.227 69.0444 14.13 68.7532 14.13C68.4038 14.13 68.064 14.2562 67.734 14.5085C67.4234 14.7609 67.1807 14.9745 67.006 15.1492L65.084 24.2058H59.1433L61.7933 11.6838H66.54L67.0642 13.5476H67.2389Z" fill="white"/>
<path d="M48.7199 5.714H60.9798L60.5139 7.9272H54.5732L53.3501 13.5475H58.3298L57.8639 15.7316H52.8842L51.5446 21.9635H57.4853L57.0485 24.2058H44.7886L48.7199 5.714Z" fill="white"/>
<defs>
<linearGradient id="paint0_linear_8_168" x1="27.5734" y1="8.51779" x2="2.38414" y2="25.5845" gradientUnits="userSpaceOnUse">
<stop stop-color="#8166EC"/>
<stop offset="1" stop-color="#1BADFF"/>
</linearGradient>
<linearGradient id="paint1_linear_8_168" x1="27.5734" y1="8.51779" x2="2.38414" y2="25.5845" gradientUnits="userSpaceOnUse">
<stop stop-color="#8166EC"/>
<stop offset="1" stop-color="#1BADFF"/>
</linearGradient>
</defs>
</svg>
