<svg width="36" height="36" viewBox="0 0 36 36" fill="none" xmlns="http://www.w3.org/2000/svg">
<g clip-path="url(#clip0_391_1344)">
<rect width="36" height="36" rx="8" fill="white"/>
<path d="M28.8143 6.99889L19.563 13.8809L21.2835 9.8194L28.8143 6.99889Z" fill="#E17726" stroke="#E17726" stroke-width="0.28208" stroke-linecap="round" stroke-linejoin="round"/>
<path d="M7.43343 6.99889L16.6283 13.9374L14.9924 9.8194L7.43343 6.99889Z" fill="#E27625" stroke="#E27625" stroke-width="0.28208" stroke-linecap="round" stroke-linejoin="round"/>
<path d="M25.4865 22.9364L23.0044 26.7159L28.307 28.1826L29.8019 23.021L25.4865 22.9364Z" fill="#E27625" stroke="#E27625" stroke-width="0.28208" stroke-linecap="round" stroke-linejoin="round"/>
<path d="M6.4745 23.021L7.96938 28.1826L13.2437 26.7159L10.7899 22.9364L6.4745 23.021Z" fill="#E27625" stroke="#E27625" stroke-width="0.28208" stroke-linecap="round" stroke-linejoin="round"/>
<path d="M12.9621 16.5611L11.4955 18.7893L16.7134 19.015L16.5442 13.3739L12.9621 16.5611Z" fill="#E27625" stroke="#E27625" stroke-width="0.28208" stroke-linecap="round" stroke-linejoin="round"/>
<path d="M23.3143 16.5611L19.6758 13.3175L19.563 19.0149L24.7809 18.7893L23.3143 16.5611Z" fill="#E27625" stroke="#E27625" stroke-width="0.28208" stroke-linecap="round" stroke-linejoin="round"/>
<path d="M13.2444 26.7159L16.4034 25.1928L13.6675 23.0492L13.2444 26.7159Z" fill="#E27625" stroke="#E27625" stroke-width="0.28208" stroke-linecap="round" stroke-linejoin="round"/>
<path d="M19.8733 25.1928L23.0041 26.7159L22.581 23.0492L19.8733 25.1928Z" fill="#E27625" stroke="#E27625" stroke-width="0.28208" stroke-linecap="round" stroke-linejoin="round"/>
<path d="M23.0041 26.7162L19.8733 25.1931L20.1272 27.2238L20.099 28.0982L23.0041 26.7162Z" fill="#D5BFB2" stroke="#D5BFB2" stroke-width="0.28208" stroke-linecap="round" stroke-linejoin="round"/>
<path d="M13.2444 26.7162L16.1778 28.0982L16.1495 27.2238L16.4034 25.1931L13.2444 26.7162Z" fill="#D5BFB2" stroke="#D5BFB2" stroke-width="0.28208" stroke-linecap="round" stroke-linejoin="round"/>
<path d="M16.2342 21.6951L13.6111 20.9335L15.4444 20.0874L16.2342 21.6951Z" fill="#233447" stroke="#233447" stroke-width="0.28208" stroke-linecap="round" stroke-linejoin="round"/>
<path d="M20.0424 21.6951L20.804 20.0874L22.6655 20.9335L20.0424 21.6951Z" fill="#233447" stroke="#233447" stroke-width="0.28208" stroke-linecap="round" stroke-linejoin="round"/>
<path d="M13.2441 26.7159L13.6954 22.9364L10.7903 23.021L13.2441 26.7159Z" fill="#CC6228" stroke="#CC6228" stroke-width="0.28208" stroke-linecap="round" stroke-linejoin="round"/>
<path d="M22.5812 22.9364L23.0042 26.7159L25.4863 23.021L22.5812 22.9364Z" fill="#CC6228" stroke="#CC6228" stroke-width="0.28208" stroke-linecap="round" stroke-linejoin="round"/>
<path d="M24.7809 18.7899L19.563 19.0155L20.0425 21.695L20.804 20.0873L22.6656 20.9335L24.7809 18.7899Z" fill="#CC6228" stroke="#CC6228" stroke-width="0.28208" stroke-linecap="round" stroke-linejoin="round"/>
<path d="M13.6109 20.9335L15.4442 20.0873L16.2339 21.695L16.7134 19.0155L11.4955 18.7899L13.6109 20.9335Z" fill="#CC6228" stroke="#CC6228" stroke-width="0.28208" stroke-linecap="round" stroke-linejoin="round"/>
<path d="M11.4955 18.7899L13.6673 23.0488L13.6109 20.9335L11.4955 18.7899Z" fill="#E27525" stroke="#E27525" stroke-width="0.28208" stroke-linecap="round" stroke-linejoin="round"/>
<path d="M22.6658 20.9335L22.5812 23.0488L24.7812 18.7899L22.6658 20.9335Z" fill="#E27525" stroke="#E27525" stroke-width="0.28208" stroke-linecap="round" stroke-linejoin="round"/>
<path d="M16.7138 19.0155L16.2344 21.695L16.8267 24.8822L16.9677 20.6797L16.7138 19.0155Z" fill="#E27525" stroke="#E27525" stroke-width="0.28208" stroke-linecap="round" stroke-linejoin="round"/>
<path d="M19.563 19.0155L19.3091 20.6797L19.422 24.8822L20.0425 21.695L19.563 19.0155Z" fill="#E27525" stroke="#E27525" stroke-width="0.28208" stroke-linecap="round" stroke-linejoin="round"/>
<path d="M20.0425 21.6952L19.422 24.8823L19.8732 25.1926L22.5809 23.049L22.6655 20.9336L20.0425 21.6952Z" fill="#F5841F" stroke="#F5841F" stroke-width="0.28208" stroke-linecap="round" stroke-linejoin="round"/>
<path d="M13.6111 20.9336L13.6675 23.049L16.4034 25.1926L16.8265 24.8823L16.2342 21.6952L13.6111 20.9336Z" fill="#F5841F" stroke="#F5841F" stroke-width="0.28208" stroke-linecap="round" stroke-linejoin="round"/>
<path d="M20.0983 28.0983L20.1265 27.224L19.8726 27.0265H16.3752L16.1495 27.224L16.1778 28.0983L13.2444 26.7163L14.2598 27.5624L16.347 29.0009H19.9008L21.988 27.5624L23.0034 26.7163L20.0983 28.0983Z" fill="#C0AC9D" stroke="#C0AC9D" stroke-width="0.28208" stroke-linecap="round" stroke-linejoin="round"/>
<path d="M19.8729 25.193L19.4216 24.8828H16.8267L16.4036 25.193L16.1498 27.2238L16.3754 27.0263H19.8729L20.1267 27.2238L19.8729 25.193Z" fill="#161616" stroke="#161616" stroke-width="0.28208" stroke-linecap="round" stroke-linejoin="round"/>
<path d="M29.2102 14.333L30 10.5249L28.8153 6.99889L19.8733 13.656L23.3147 16.5614L28.1665 17.9718L29.2384 16.7307L28.7871 16.3922L29.5205 15.7152L28.9563 15.2638L29.6897 14.6997L29.2102 14.333Z" fill="#763E1A" stroke="#763E1A" stroke-width="0.28208" stroke-linecap="round" stroke-linejoin="round"/>
<path d="M6.27701 10.5249L7.06683 14.333L6.55909 14.6997L7.2925 15.2638L6.72834 15.7152L7.48995 16.3922L7.01042 16.7307L8.08232 17.9718L12.9623 16.5614L16.4037 13.656L7.43354 6.99889L6.27701 10.5249Z" fill="#763E1A" stroke="#763E1A" stroke-width="0.28208" stroke-linecap="round" stroke-linejoin="round"/>
<path d="M28.1658 17.9716L23.3145 16.5614L24.7812 18.7896L22.5812 23.0486L25.4863 23.0204H29.8017L28.1658 17.9716Z" fill="#F5841F" stroke="#F5841F" stroke-width="0.28208" stroke-linecap="round" stroke-linejoin="round"/>
<path d="M12.9617 16.5614L8.0822 17.9716L6.4745 23.0204H10.7899L13.6668 23.0486L11.495 18.7896L12.9617 16.5614Z" fill="#F5841F" stroke="#F5841F" stroke-width="0.28208" stroke-linecap="round" stroke-linejoin="round"/>
<path d="M19.5629 19.0155L19.8732 13.656L21.2836 9.81969H14.9932L16.4036 13.656L16.7139 19.0155L16.8268 20.708V24.8828H19.4219V20.708L19.5629 19.0155Z" fill="#F5841F" stroke="#F5841F" stroke-width="0.28208" stroke-linecap="round" stroke-linejoin="round"/>
<rect width="36" height="36" rx="7.2" fill="#000008"/>
<path d="M14.5999 9H9.40002C9.17912 9 9 9.17904 9 9.40003V14.6C9 14.8209 9.17912 15 9.40002 15H14.5999C14.8209 15 14.9999 14.8209 14.9999 14.6V9.40003C14.9999 9.17904 14.8209 9 14.5999 9Z" fill="white"/>
<path d="M20.6029 15.0003H15.403C15.1821 15.0003 15.003 15.1793 15.003 15.4002V20.6003C15.003 20.8212 15.1821 21.0003 15.403 21.0003H20.6029C20.8238 21.0003 21.0029 20.8212 21.0029 20.6003V15.4002C21.0029 15.1793 20.8238 15.0003 20.6029 15.0003Z" fill="white"/>
<path d="M21.4001 9H26.6001C26.821 9 27 9.17904 27 9.40003V14.6C27 14.8209 26.821 15 26.6001 15H21.4001C21.1792 15 21.0001 14.8209 21.0001 14.6V9.40003C21.0001 9.17904 21.1792 9 21.4001 9Z" fill="white"/>
<path d="M14.5999 21H9.40002C9.17912 21 9 21.179 9 21.3999V26.6C9 26.8209 9.17912 27 9.40002 27H14.5999C14.8209 27 14.9999 26.8209 14.9999 26.6V21.3999C14.9999 21.179 14.8209 21 14.5999 21Z" fill="white"/>
<path d="M21.4001 21H26.6001C26.821 21 27 21.179 27 21.3999V26.6C27 26.8209 26.821 27 26.6001 27H21.4001C21.1792 27 21.0001 26.8209 21.0001 26.6V21.3999C21.0001 21.179 21.1792 21 21.4001 21Z" fill="white"/>
</g>
<rect x="0.25" y="0.25" width="35.5" height="35.5" rx="7.75" stroke="#344054" stroke-width="0.5"/>
<defs>
<clipPath id="clip0_391_1344">
<rect width="36" height="36" rx="8" fill="white"/>
</clipPath>
</defs>
</svg>
